<svg height="512pt" viewBox="0 0 512.00029 512" width="512pt" xmlns="http://www.w3.org/2000/svg"><path d="m376 0h-240c-8.398438 0-15 6.597656-15 15v180c0 8.398438 6.601562 15 15 15h240c8.398438 0 15-6.601562 15-15v-180c0-8.402344-6.601562-15-15-15zm0 0" fill="#ffb64c"/><path d="m376 210h-120v-210h120c8.398438 0 15 6.597656 15 15v180c0 8.398438-6.601562 15-15 15zm0 0" fill="#ff9100"/><path d="m361 30v91.199219l-105 48.597656-1.5.601563-103.5-79.5v-60.898438zm0 0" fill="#80e980"/><path d="m361 30v91.199219l-105 48.597656v-139.796875zm0 0" fill="#1fbf65"/><path d="m81.992188 303c-16.816407 12.628906-51.492188 22.207031-71.488282 28.492188-7.894531 2.476562-12.289062 10.898437-9.8125 18.808593 2.5 7.980469 10.992188 12.265625 18.808594 9.8125 23.246094-7.292969 60.953125-18.441406 80.511719-33.117187zm0 0" fill="#cc2e43"/><path d="m501.496094 331.492188c-19.996094-6.285157-54.671875-15.863282-71.488282-28.492188l-18.019531 23.996094c19.558594 14.675781 57.265625 25.824218 80.511719 33.117187 7.824219 2.457031 16.3125-1.84375 18.808594-9.8125 2.476562-7.910156-1.917969-16.332031-9.8125-18.808593zm0 0" fill="#8e1e2c"/><path d="m400 326.996094c-38.101562 28.5-98.398438 42.601562-144 42.601562s-105.902344-14.101562-144-42.601562l18-24c32.699219 24.601562 86.699219 36.898437 125.996094 36.898437 39.300781 0 93.300781-12.296875 126-36.898437zm0 0" fill="#cc2e43"/><path d="m400 326.996094c-38.101562 28.5-98.398438 42.601562-144 42.601562v-29.703125c39.296875 0 93.296875-12.296875 126-36.898437zm0 0" fill="#8e1e2c"/><path d="m316 105c-16.539062 0-30-13.460938-30-30s13.460938-30 30-30 30 13.460938 30 30-13.460938 30-30 30zm0 0" fill="#ffb64c"/><path d="m121 511.996094h-30c-8.289062 0-15-6.707032-15-15v-181.996094c0-8.292969 6.710938-15 15-15h30c8.292969 0 15 6.707031 15 15v181.996094c0 8.292968-6.707031 15-15 15zm0 0" fill="#ffb64c"/><path d="m136 270c0 16.566406-13.429688 30-30 30-16.566406 0-30-13.433594-30-30 0-16.570312 13.433594-30 30-30 16.570312 0 30 13.429688 30 30zm0 0" fill="#ffd396"/><path d="m421 511.996094h-30c-8.292969 0-15-6.707032-15-15v-181.996094c0-8.292969 6.707031-15 15-15h30c8.289062 0 15 6.707031 15 15v181.996094c0 8.292968-6.710938 15-15 15zm0 0" fill="#ff9100"/><path d="m436 270c0 16.566406-13.433594 30-30 30-16.570312 0-30-13.433594-30-30 0-16.570312 13.429688-30 30-30 16.566406 0 30 13.429688 30 30zm0 0" fill="#ffb64c"/><path d="m361 121.199219v58.800781h-210v-89.101562c4.800781-.597657 9.902344-.898438 15-.898438 32.703125 0 63.601562 9.300781 90 26.699219 10.199219 6.597656 19.796875 14.699219 28.5 23.699219 18-13.199219 39-20.398438 61.5-20.398438 5.097656 0 10.199219.300781 15 1.199219zm0 0" fill="#3e5959"/><path d="m361 121.199219v58.800781h-105v-63.300781c10.199219 6.597656 19.796875 14.699219 28.5 23.699219 18-13.199219 39-20.398438 61.5-20.398438 5.097656 0 10.199219.300781 15 1.199219zm0 0" fill="#293939"/></svg>